<svg width="25" height="27" viewBox="0 0 25 27" fill="none" xmlns="http://www.w3.org/2000/svg">
<path d="M1.00917 20.8256C1.72447 21.1059 2.71885 21.4955 3.90822 21.9099C6.38976 22.7747 10.9397 19.6346 15.4681 15.6752C17.3132 14.0619 18.5966 10.2392 19.0402 8.05012C19.0192 7.5731 18.9612 6.93152 18.9392 6.44937C18.9171 5.96722 18.9328 5.66395 19.1613 4.80959" stroke="#567BF7" stroke-width="2" stroke-linecap="round"/>
<path d="M15.5693 7.65766C15.7302 7.24702 16.1882 6.25712 16.4164 5.9464C16.6623 5.61163 17.0768 5.29575 17.6733 4.88189C17.9736 4.67359 18.2977 4.53256 18.9034 4.24865C19.0372 4.1859 19.0846 4.15055 19.1445 4.15568C19.2832 4.16757 19.4105 4.31223 19.535 4.42286C19.644 4.51978 20.2984 5.0998 21.2361 5.98021C21.8706 6.57589 22.1341 6.93638 22.5818 7.35103C22.828 7.563 22.936 7.69399 23.0129 7.76819C23.0501 7.80933 23.0838 7.85757 23.1925 7.98939" stroke="#567BF7" stroke-width="2" stroke-linecap="round"/>
</svg>
