<svg width="800" height="260" viewBox="0 0 800 260" fill="none" xmlns="http://www.w3.org/2000/svg">
<mask id="mask0_689_8" style="mask-type:luminance" maskUnits="userSpaceOnUse" x="0" y="0" width="800" height="260">
<path d="M0 0.91626H800V259.084H0V0.91626Z" fill="white"/>
</mask>
<g mask="url(#mask0_689_8)">
<path d="M753.965 83.8667C747.895 109.986 742.5 135.435 735.756 164.233C753.29 162.223 763.406 151.508 767.452 139.453C779.591 103.289 791.056 66.4541 799.149 28.95C803.869 7.51913 788.358 -3.86611 767.452 2.83105C732.384 13.5465 697.991 26.2711 662.922 38.326C660.899 38.9957 658.202 39.6656 657.527 41.0049C654.155 45.693 652.132 51.0505 649.435 56.4083C654.155 58.4175 658.876 63.1056 662.922 62.4357C677.085 60.4267 690.572 57.0782 704.06 54.3993C711.478 53.0597 718.222 51.0508 729.013 54.3993C721.594 62.436 714.176 71.142 706.758 79.1786C546.254 238.571 305.498 272.057 105.877 164.233C80.2517 150.169 56.647 133.426 31.6972 118.022C22.929 112.665 14.1609 107.976 5.39592 102.619C3.37202 103.958 2.02383 105.967 -7.24754e-05 107.307C2.02383 113.334 2.69633 121.371 7.41665 125.389C22.2533 139.453 37.09 153.517 53.9505 165.572C221.198 286.121 453.861 290.809 633.924 175.618C668.318 153.517 698.665 125.389 730.361 99.9397C737.105 94.582 742.5 88.5549 748.57 82.5271C749.918 81.8575 751.942 82.5271 753.965 83.8667Z" fill="#4B7CFF"/>
</g>
</svg>
