<svg width="21" height="20" viewBox="0 0 21 20" fill="none" xmlns="http://www.w3.org/2000/svg">
<path d="M6.63789 0H15.0379C18.2379 0 20.8379 2.6 20.8379 5.8V14.2C20.8379 15.7383 20.2268 17.2135 19.1391 18.3012C18.0514 19.3889 16.5761 20 15.0379 20H6.63789C3.43789 20 0.837891 17.4 0.837891 14.2V5.8C0.837891 4.26174 1.44896 2.78649 2.53667 1.69878C3.62438 0.61107 5.09964 0 6.63789 0ZM6.43789 2C5.48311 2 4.56744 2.37928 3.89231 3.05442C3.21718 3.72955 2.83789 4.64522 2.83789 5.6V14.4C2.83789 16.39 4.44789 18 6.43789 18H15.2379C16.1927 18 17.1083 17.6207 17.7835 16.9456C18.4586 16.2705 18.8379 15.3548 18.8379 14.4V5.6C18.8379 3.61 17.2279 2 15.2379 2H6.43789ZM16.0879 3.5C16.4194 3.5 16.7374 3.6317 16.9718 3.86612C17.2062 4.10054 17.3379 4.41848 17.3379 4.75C17.3379 5.08152 17.2062 5.39946 16.9718 5.63388C16.7374 5.8683 16.4194 6 16.0879 6C15.7564 6 15.4384 5.8683 15.204 5.63388C14.9696 5.39946 14.8379 5.08152 14.8379 4.75C14.8379 4.41848 14.9696 4.10054 15.204 3.86612C15.4384 3.6317 15.7564 3.5 16.0879 3.5ZM10.8379 5C12.164 5 13.4357 5.52678 14.3734 6.46447C15.3111 7.40215 15.8379 8.67392 15.8379 10C15.8379 11.3261 15.3111 12.5979 14.3734 13.5355C13.4357 14.4732 12.164 15 10.8379 15C9.51181 15 8.24004 14.4732 7.30236 13.5355C6.36467 12.5979 5.83789 11.3261 5.83789 10C5.83789 8.67392 6.36467 7.40215 7.30236 6.46447C8.24004 5.52678 9.51181 5 10.8379 5ZM10.8379 7C10.0422 7 9.27918 7.31607 8.71657 7.87868C8.15396 8.44129 7.83789 9.20435 7.83789 10C7.83789 10.7956 8.15396 11.5587 8.71657 12.1213C9.27918 12.6839 10.0422 13 10.8379 13C11.6335 13 12.3966 12.6839 12.9592 12.1213C13.5218 11.5587 13.8379 10.7956 13.8379 10C13.8379 9.20435 13.5218 8.44129 12.9592 7.87868C12.3966 7.31607 11.6335 7 10.8379 7Z" fill="white"/>
</svg>
