<svg width="754" height="211" viewBox="0 0 754 211" fill="none" xmlns="http://www.w3.org/2000/svg">
<path d="M248.774 49.9837C248.774 51.5852 249.841 52.5343 251.977 52.8308C254.171 53.0681 256.395 53.335 258.649 53.6316C260.903 53.8689 263.395 54.1654 266.123 54.5213C268.911 54.8179 271.491 55.1441 273.864 55.5C276.236 55.8559 278.639 56.3304 281.07 56.9236C283.562 57.4574 285.697 58.4064 287.476 59.7707C289.256 61.0756 290.561 62.9144 291.391 65.2869C292.222 67.6002 292.637 70.299 292.637 73.3834C292.637 79.0183 291.421 83.3483 288.989 86.3733C286.616 89.3391 283.295 91.3261 279.024 92.3345C274.813 93.2835 269.534 93.758 263.187 93.758C256.662 93.758 251.176 93.2835 246.727 92.3345C242.279 91.3261 238.482 89.3984 235.339 86.5513C232.254 83.7042 230.712 78.7217 230.712 71.604H246.994C246.994 74.0359 248.329 75.9636 250.998 77.3872C253.726 78.7514 257.611 79.4335 262.653 79.4335C268.051 79.4335 271.639 78.8404 273.419 77.6541C275.198 76.4678 276.088 75.1332 276.088 73.6503C276.088 72.4047 275.169 71.5447 273.33 71.0701C271.55 70.5956 269.267 70.1211 266.479 69.6466C263.751 69.1127 261.022 68.6975 258.294 68.401C255.624 68.1044 253.044 67.8375 250.553 67.6002C248.121 67.3036 245.66 66.7995 243.168 66.0877C240.677 65.3759 238.512 64.4269 236.673 63.2406C234.835 61.995 233.381 60.1859 232.314 57.8133C231.246 55.3814 230.712 52.7122 230.712 49.8058C230.712 44.942 231.78 41.1162 233.915 38.3284C236.051 35.4813 239.461 33.4942 244.147 32.3673C248.892 31.2403 254.675 30.6768 261.497 30.6768C268.496 30.6768 274.012 31.2403 278.045 32.3673C282.079 33.4942 285.489 35.5703 288.277 38.5953C291.065 41.561 292.459 45.9503 292.459 51.7632H276.622C276.622 49.9244 275.317 48.4119 272.707 47.2256C270.097 46.0393 266.509 45.4462 261.941 45.4462C256.366 45.4462 252.777 45.8614 251.176 46.6918C249.574 47.4629 248.774 48.5602 248.774 49.9837ZM299.787 92.3345V31.8334H353.437V46.069H317.938V54.6993H351.747V68.4899H317.938V78.0989H353.437V92.3345H299.787ZM360.521 92.3345V31.8334H378.671V77.6541H415.773V92.3345H360.521ZM422.906 92.3345V31.8334H476.556V46.069H441.056V54.9662H475.577V69.2017H441.056V92.3345H422.906ZM506.862 92.3345V46.5138H483.64V31.8334H548.234V46.5138H525.012V92.3345H506.862ZM598.393 92.3345L594.211 82.0137H563.961L559.779 92.3345H540.116L565.206 31.8334H593.055L618.056 92.3345H598.393ZM570.011 67.3333H588.25L579.887 46.7807H578.374L570.011 67.3333ZM625.178 92.3345V31.8334H659.522C664.801 31.8334 669.457 32.6638 673.49 34.3246C677.524 35.9855 680.4 38.3877 682.121 41.5314C683.9 44.6751 684.79 48.4712 684.79 52.9198C684.79 59.6224 683.07 64.8124 679.629 68.4899C676.248 72.1675 669.605 74.0062 659.7 74.0062H643.329V92.3345H625.178ZM643.329 59.7707H658.721C662.043 59.7707 664.119 59.1479 664.949 57.9023C665.779 56.5973 666.195 54.9365 666.195 52.9198C666.195 50.8438 665.75 49.183 664.86 47.9374C664.03 46.6918 662.132 46.069 659.166 46.069H643.329V59.7707ZM691.908 92.3345V31.8334H745.558V46.069H710.058V54.6993H743.867V68.4899H710.058V78.0989H745.558V92.3345H691.908Z" fill="white"/>
<path d="M230.452 172.323L230.266 111.823L264.52 111.717C271.757 111.695 277.424 112.745 281.524 114.868C285.682 116.99 287.77 120.78 287.787 126.237C287.802 131.279 286.627 134.93 284.262 137.191C281.955 139.393 278.844 140.5 274.93 140.512L274.932 141.224C281.338 141.382 285.672 142.466 287.932 144.476C290.251 146.426 291.417 149.477 291.43 153.629C291.448 159.561 289.416 164.134 285.333 167.35C281.31 170.565 275.442 172.185 267.731 172.209L230.452 172.323ZM248.489 135.255L263.792 135.208C265.808 135.202 267.201 134.782 267.97 133.95C268.797 133.057 269.209 131.959 269.205 130.654C269.201 129.23 268.782 128.105 267.949 127.277C267.175 126.389 265.928 125.948 264.208 125.954L248.46 126.002L248.489 135.255ZM248.559 158.032L267.243 157.974C269.141 157.969 270.533 157.49 271.42 156.538C272.366 155.586 272.837 154.369 272.832 152.886C272.828 151.522 272.38 150.366 271.487 149.42C270.654 148.414 269.258 147.914 267.301 147.92L248.528 147.978L248.559 158.032ZM351.721 171.95L347.508 161.642L317.258 161.735L313.108 172.069L293.445 172.129L318.349 111.551L346.197 111.466L371.384 171.889L351.721 171.95ZM323.262 147.036L341.502 146.98L333.075 126.453L331.563 126.458L323.262 147.036ZM386.523 171.843L386.382 126.022L363.161 126.094L363.115 111.414L427.709 111.215L427.754 125.895L404.532 125.967L404.673 171.787L386.523 171.843ZM458.205 171.622L458.063 125.802L434.842 125.873L434.797 111.193L499.39 110.994L499.435 125.674L476.214 125.746L476.355 171.566L458.205 171.622ZM506.664 171.473L506.478 110.972L524.628 110.916L524.769 156.737L561.87 156.623L561.916 171.303L506.664 171.473ZM569.049 171.281L568.862 110.78L622.512 110.615L622.556 124.85L587.057 124.96L587.083 133.59L620.892 133.486L620.935 147.277L587.126 147.381L587.155 156.99L622.655 156.88L622.699 171.116L569.049 171.281Z" fill="white"/>
<path d="M105.404 0.525635L119.472 48.4229L154.188 12.5499L144.386 61.4987L191.797 45.8681L160.37 84.6549L209.613 92.8474L163.761 112.587L203.557 142.725L153.784 138.895L175.015 184.076L132.723 157.553L130.526 207.425L105.404 164.287L80.2816 207.425L78.0845 157.553L35.7924 184.076L57.0238 138.895L7.25038 142.725L47.0464 112.587L1.1941 92.8474L50.4379 84.6549L19.011 45.8681L66.4214 61.4987L56.6194 12.5499L91.3354 48.4229L105.404 0.525635Z" fill="#00FFB7"/>
</svg>
