<svg width="160" height="45" viewBox="0 0 160 45" fill="none" xmlns="http://www.w3.org/2000/svg">
<path d="M52.7548 11.3059C52.7548 11.6461 52.9816 11.8477 53.4352 11.9107C53.9014 11.9611 54.3739 12.0178 54.8527 12.0808C55.3315 12.1312 55.8606 12.1942 56.4402 12.2698C57.0324 12.3328 57.5805 12.4021 58.0845 12.4777C58.5885 12.5533 59.0988 12.6541 59.6154 12.7801C60.1446 12.8935 60.5982 13.0951 60.9762 13.3849C61.3542 13.6621 61.6314 14.0527 61.8078 14.5567C61.9842 15.0481 62.0724 15.6214 62.0724 16.2766C62.0724 17.4736 61.8141 18.3934 61.2975 19.036C60.7935 19.666 60.0879 20.088 59.1807 20.3022C58.2861 20.5038 57.1647 20.6046 55.8165 20.6046C54.4306 20.6046 53.2651 20.5038 52.3201 20.3022C51.3751 20.088 50.5687 19.6786 49.9009 19.0738C49.2457 18.469 48.9181 17.4106 48.9181 15.8986H52.3768C52.3768 16.4152 52.6603 16.8247 53.2273 17.1271C53.8069 17.4169 54.6322 17.5618 55.7031 17.5618C56.8497 17.5618 57.612 17.4358 57.99 17.1838C58.368 16.9318 58.557 16.6483 58.557 16.3333C58.557 16.0687 58.3617 15.886 57.9711 15.7852C57.5931 15.6844 57.108 15.5836 56.5158 15.4828C55.9362 15.3694 55.3567 15.2812 54.7771 15.2182C54.2101 15.1552 53.662 15.0985 53.1328 15.0481C52.6162 14.9851 52.0933 14.878 51.5641 14.7268C51.0349 14.5756 50.575 14.374 50.1844 14.122C49.7938 13.8574 49.4851 13.4731 49.2583 12.9691C49.0315 12.4525 48.9181 11.8855 48.9181 11.2681C48.9181 10.2349 49.1449 9.42224 49.5985 8.83004C50.0521 8.22525 50.7766 7.80315 51.772 7.56375C52.78 7.32435 54.0085 7.20465 55.4574 7.20465C56.9442 7.20465 58.116 7.32435 58.9728 7.56375C59.8296 7.80315 60.5541 8.24415 61.1463 8.88674C61.7385 9.51674 62.0346 10.4491 62.0346 11.6839H58.6704C58.6704 11.2933 58.3932 10.972 57.8388 10.72C57.2844 10.468 56.5221 10.342 55.5519 10.342C54.3676 10.342 53.6053 10.4302 53.2651 10.6066C52.9249 10.7704 52.7548 11.0035 52.7548 11.3059ZM63.5913 20.3022V7.45035H74.9879V10.4743H67.4469V12.3076H74.6288V15.2371H67.4469V17.2783H74.9879V20.3022H63.5913ZM76.4927 20.3022V7.45035H80.3482V17.1838H88.2295V20.3022H76.4927ZM89.7447 20.3022V7.45035H101.141V10.4743H93.6003V12.3643H100.933V15.3883H93.6003V20.3022H89.7447ZM107.579 20.3022V10.5688H102.646V7.45035H116.367V10.5688H111.435V20.3022H107.579ZM127.022 20.3022L126.134 18.1099H119.708L118.82 20.3022H114.643L119.973 7.45035H125.888L131.199 20.3022H127.022ZM120.993 14.9914H124.868L123.091 10.6255H122.77L120.993 14.9914ZM132.712 20.3022V7.45035H140.008C141.129 7.45035 142.118 7.62675 142.975 7.97955C143.832 8.33235 144.443 8.84264 144.808 9.51043C145.186 10.1782 145.375 10.9846 145.375 11.9296C145.375 13.3534 145.01 14.4559 144.279 15.2371C143.561 16.0183 142.15 16.4089 140.045 16.4089H136.568V20.3022H132.712ZM136.568 13.3849H139.838C140.543 13.3849 140.984 13.2526 141.161 12.988C141.337 12.7108 141.425 12.358 141.425 11.9296C141.425 11.4886 141.331 11.1358 141.142 10.8712C140.965 10.6066 140.562 10.4743 139.932 10.4743H136.568V13.3849ZM146.887 20.3022V7.45035H158.284V10.4743H150.743V12.3076H157.925V15.2371H150.743V17.2783H158.284V20.3022H146.887Z" fill="white"/>
<path d="M48.8614 37.294L48.8218 24.4421L56.0982 24.4197C57.6354 24.415 58.8394 24.6381 59.7101 25.089C60.5935 25.5399 61.037 26.3449 61.0406 27.5041C61.0439 28.5751 60.7943 29.3508 60.2917 29.8311C59.8018 30.2988 59.141 30.5339 58.3094 30.5365L58.3099 30.6877C59.6708 30.7213 60.5913 30.9516 61.0714 31.3785C61.5641 31.7928 61.8118 32.4409 61.8145 33.3229C61.8184 34.5829 61.3867 35.5544 60.5194 36.2375C59.6647 36.9205 58.4183 37.2645 56.7804 37.2696L48.8614 37.294ZM52.6927 29.4198L55.9435 29.4098C56.3719 29.4085 56.6677 29.3194 56.8309 29.1425C57.0068 28.9529 57.0942 28.7196 57.0934 28.4424C57.0924 28.14 57.0035 27.9008 56.8266 27.725C56.6622 27.5365 56.3973 27.4428 56.0319 27.4439L52.6867 27.4542L52.6927 29.4198ZM52.7076 34.2581L56.6765 34.2459C57.0797 34.2447 57.3755 34.143 57.5639 33.9408C57.7649 33.7386 57.8649 33.48 57.8639 33.165C57.863 32.8752 57.7678 32.6298 57.5782 32.4287C57.4011 32.2151 57.1047 32.1089 56.6889 32.1102L52.701 32.1225L52.7076 34.2581ZM74.6219 37.2147L73.7268 35.025L67.3009 35.0448L66.4194 37.2399L62.2425 37.2528L67.5327 24.3845L73.4483 24.3663L78.7987 37.2018L74.6219 37.2147ZM68.5765 31.9224L72.4509 31.9105L70.6609 27.5501L70.3396 27.5511L68.5765 31.9224ZM82.0146 37.1919L81.9847 27.4585L77.0518 27.4737L77.0422 24.3553L90.7634 24.313L90.773 27.4315L85.8402 27.4467L85.8702 37.18L82.0146 37.1919ZM97.2415 37.145L97.2115 27.4116L92.2787 27.4268L92.2691 24.3084L105.99 24.2661L106 27.3846L101.067 27.3998L101.097 37.1332L97.2415 37.145ZM107.535 37.1133L107.496 24.2615L111.351 24.2496L111.381 33.983L119.263 33.9587L119.272 37.0772L107.535 37.1133ZM120.787 37.0725L120.748 24.2207L132.144 24.1856L132.154 27.2096L124.613 27.2328L124.618 29.0661L131.8 29.044L131.809 31.9734L124.627 31.9955L124.634 34.0367L132.175 34.0135L132.184 37.0374L120.787 37.0725Z" fill="white"/>
<path d="M22.2993 0L25.2877 10.1745L32.6622 2.55424L30.5801 12.9522L40.6512 9.63183L33.9753 17.8711L44.4359 19.6114L34.6958 23.8045L43.1494 30.2067L32.5763 29.393L37.0864 38.9905L28.1025 33.3565L27.6358 43.9505L22.2993 34.7868L16.9627 43.9505L16.496 33.3565L7.51211 38.9905L12.0222 29.393L1.44909 30.2067L9.90272 23.8045L0.162586 19.6114L10.6232 17.8711L3.94733 9.63183L14.0185 12.9522L11.9363 2.55424L19.3108 10.1745L22.2993 0Z" fill="#4B7CFF"/>
</svg>
